# xmcd
#
# Track frame offsets:
# 150
# 13843
# 26838
# 40588
# 53083
# 71078
# 91748
# 103678
# 115913
# 129770
# 143520
# 161595
#
# Disc length: 2326 seconds
#
#
# Revision: 0
# Processed by: cddbd v1.5.1PL0 Copyright (c) Steve Scherf et al.
# Submitted via: FreeRIP 2.80 
#
DISCID=9409140c
DTITLE=Percy Sledge - Greatest Hits Of
DYEAR=1987
DGENRE=Blues
TTITLE0=When a man loves a woman
TTITLE1=Take time to know her
TTITLE2=Warm and tender love
TTITLE3=It tears me up
TTITLE4=Little tenderness
TTITLE5=You send me
TTITLE6=(Sittin' on) the dock of the bay
TTITLE7=Tell it like it is
TTITLE8=My special prayer
TTITLE9=I've been loving you too long
TTITLE10=(If loving you is wrong) I don't want to be right
TTITLE11=Cover me
EXTD=
EXTT0=
EXTT1=
EXTT2=
EXTT3=
EXTT4=
EXTT5=
EXTT6=
EXTT7=
EXTT8=
EXTT9=
EXTT10=
EXTT11=
PLAYORDER=
